<svg width="548" height="211" viewBox="0 0 548 211" fill="none" xmlns="http://www.w3.org/2000/svg">
<path d="M173.379 107.218H198.576V103.581H177.368V64.8906H173.379V107.218Z" fill="black"/>
<path d="M209.464 107.218H213.453V88.9146L228.648 64.8906H224.043L211.547 84.9839H211.371L198.875 64.8906H194.27L209.464 88.9146V107.218Z" fill="black"/>
<path d="M247.477 107.893C256.277 107.893 262.73 102.554 264.314 94.5757L264.373 94.2824H260.354L260.266 94.5464C258.506 100.56 254.047 104.168 247.477 104.168C238.384 104.168 232.458 97.0104 232.458 86.0397V86.0104C232.458 75.0105 238.325 67.9411 247.477 67.9411C254.077 67.9411 258.565 71.5785 260.178 77.2984L260.354 77.8264H264.373L264.314 77.5331C262.73 69.6131 256.247 64.2158 247.477 64.2158C235.802 64.2158 228.352 72.7225 228.352 86.0104V86.0397C228.352 99.2984 235.861 107.893 247.477 107.893Z" fill="black"/>
<path d="M270.27 107.218H274.259V87.3599H299.016V107.218H303.035V64.8906H299.016V83.7226H274.259V64.8906H270.27V107.218Z" fill="black"/>
<path d="M310.957 107.218H336.506V103.581H314.946V87.3306H335.421V83.7519H314.946V68.5279H336.506V64.8906H310.957V107.218Z" fill="black"/>
<path d="M343.338 107.218H368.887V103.581H347.327V87.3306H367.802V83.7519H347.327V68.5279H368.887V64.8906H343.338V107.218Z" fill="black"/>
<path d="M374.959 107.218H403.236V98.5652H385.724V64.8906H374.959V107.218Z" fill="black"/>
<path d="M408.164 107.218H437.175V98.5652H418.929V89.9999H436.089V81.9039H418.929V73.5439H437.175V64.8906H408.164V107.218Z" fill="black"/>
<path d="M443.246 107.218H453.982V82.5199H454.187L471.201 107.218H480.235V64.8906H469.499V89.3252H469.294L452.369 64.8906H443.246V107.218Z" fill="black"/>
<path d="M502.938 107.981C514.143 107.981 520.773 102.613 520.773 94.1652V94.1358C520.773 87.3599 516.607 83.7225 507.631 81.9919L503.29 81.1705C498.743 80.3199 496.749 79.1172 496.749 76.8292V76.7999C496.749 74.3652 498.978 72.5759 502.938 72.5759C506.81 72.5759 509.538 74.3066 509.861 77.0932L509.89 77.4159H519.893L519.863 76.7999C519.482 69.1146 513.469 64.1279 502.85 64.1279C493.141 64.1279 486.071 69.3786 486.071 77.5332V77.5626C486.071 84.0452 490.501 88.1812 498.89 89.7358L503.231 90.5572C508.189 91.5252 510.066 92.6398 510.066 95.0452V95.0745C510.066 97.7145 507.426 99.5332 503.143 99.5332C499.007 99.5332 495.839 97.7438 495.311 95.0158L495.253 94.6932H485.25L485.279 95.2212C485.749 103.317 492.407 107.981 502.938 107.981Z" fill="black"/>
<path d="M172.672 145.12H178.565C181.69 145.12 183.573 143.553 183.573 140.977V140.957C183.573 139.023 182.22 137.588 180.133 137.374V137.333C181.68 137.109 182.851 135.674 182.851 134.127V134.107C182.851 131.888 181.141 130.432 178.535 130.432H172.672V145.12ZM177.985 132.295C179.634 132.295 180.581 133.038 180.581 134.381V134.402C180.581 135.878 179.492 136.692 177.476 136.692H174.952V132.295H177.985ZM177.944 138.453C180.123 138.453 181.242 139.267 181.242 140.845V140.865C181.242 142.433 180.143 143.257 178.097 143.257H174.952V138.453H177.944Z" fill="#A0A0A0"/>
<path d="M197.904 148.692C200.001 148.692 201.121 147.837 201.915 145.618L205.905 134.412H203.584L200.887 143.125H200.816L198.118 134.412H195.736L199.635 145.13L199.452 145.639C199.085 146.677 198.515 146.952 197.477 146.952C197.182 146.952 196.927 146.911 196.754 146.87V148.591C197.019 148.641 197.477 148.692 197.904 148.692Z" fill="#A0A0A0"/>
<path d="M234.404 145.12H243.524V143.156H236.684V130.432H234.404V145.12Z" fill="#A0A0A0"/>
<path d="M256.852 145.12H266.175V143.156H259.132V138.595H265.799V136.682H259.132V132.397H266.175V130.432H256.852V145.12Z" fill="#A0A0A0"/>
<path d="M279.891 145.12H281.967V134.28H282.038L286.466 145.12H288.156L292.583 134.28H292.655V145.12H294.731V130.432H292.105L287.341 142.158H287.28L282.527 130.432H279.891V145.12Z" fill="#A0A0A0"/>
<path d="M315.158 145.364C319.403 145.364 322.039 142.443 322.039 137.781V137.76C322.039 133.109 319.393 130.188 315.158 130.188C310.934 130.188 308.277 133.099 308.277 137.76V137.781C308.277 142.453 310.924 145.364 315.158 145.364ZM315.158 143.349C312.369 143.349 310.598 141.201 310.598 137.781V137.76C310.598 134.34 312.379 132.203 315.158 132.203C317.947 132.203 319.708 134.351 319.708 137.76V137.781C319.708 141.17 317.978 143.349 315.158 143.349Z" fill="#A0A0A0"/>
<path d="M335.578 145.12H337.838V134.239H337.899L345.462 145.12H347.558V130.432H345.299V141.293H345.238L337.685 130.432H335.578V145.12Z" fill="#A0A0A0"/>
<path d="M381.313 145.12H383.593V139.104L388.774 130.432H386.24L382.494 136.916H382.423L378.677 130.432H376.143L381.313 139.104V145.12Z" fill="#A0A0A0"/>
<path d="M401.762 145.12H411.085V143.156H404.042V138.595H410.709V136.682H404.042V132.397H411.085V130.432H401.762V145.12Z" fill="#A0A0A0"/>
<path d="M424.797 145.12H433.917V143.156H427.077V130.432H424.797V145.12Z" fill="#A0A0A0"/>
<path d="M447.242 145.12H456.362V143.156H449.522V130.432H447.242V145.12Z" fill="#A0A0A0"/>
<path d="M475.428 145.364C479.672 145.364 482.309 142.443 482.309 137.781V137.76C482.309 133.109 479.662 130.188 475.428 130.188C471.204 130.188 468.547 133.099 468.547 137.76V137.781C468.547 142.453 471.193 145.364 475.428 145.364ZM475.428 143.349C472.639 143.349 470.868 141.201 470.868 137.781V137.76C470.868 134.34 472.649 132.203 475.428 132.203C478.217 132.203 479.978 134.351 479.978 137.76V137.781C479.978 141.17 478.247 143.349 475.428 143.349Z" fill="#A0A0A0"/>
<path d="M498.391 145.12H500.58L503.745 134.046H503.796L506.951 145.12H509.14L513.11 130.432H510.738L508 141.944H507.949L504.844 130.432H502.687L499.582 141.944H499.541L496.803 130.432H494.432L498.391 145.12Z" fill="#A0A0A0"/>
<mask id="mask0_3233_4999" style="mask-type:luminance" maskUnits="userSpaceOnUse" x="20" y="37" width="109" height="109">
<path d="M20.4668 37.292H128.663V145.488H20.4668V37.292Z" fill="white"/>
</mask>
<g mask="url(#mask0_3233_4999)">
<path fill-rule="evenodd" clip-rule="evenodd" d="M74.5649 145.488C104.361 145.488 128.663 121.186 128.663 91.3905C128.663 61.5941 104.361 37.292 74.5649 37.292C44.7687 37.292 20.4668 61.5941 20.4668 91.3905C20.4668 121.186 44.7687 145.488 74.5649 145.488Z" fill="#EF4171"/>
</g>
<mask id="mask1_3233_4999" style="mask-type:luminance" maskUnits="userSpaceOnUse" x="31" y="48" width="127" height="126">
<path d="M31.2988 48.1631H157.022V173.881H31.2988V48.1631Z" fill="white"/>
</mask>
<g mask="url(#mask1_3233_4999)">
<path fill-rule="evenodd" clip-rule="evenodd" d="M52.7253 113.232C40.665 101.172 40.6646 81.6087 52.7253 69.5477C64.7863 57.4868 84.3491 57.4864 96.4101 69.5483C108.471 81.6087 108.471 101.172 96.4101 113.232C84.3491 125.293 64.7863 125.293 52.7253 113.232ZM31.2988 91.3896C31.2988 115.259 50.675 134.616 74.5686 134.615C84.1659 134.615 93.0328 131.49 100.209 126.205L123.228 149.225L120.934 151.518L139.937 170.521C140.088 170.696 140.246 170.866 140.412 171.031C144.211 174.831 150.374 174.831 154.173 171.031C157.972 167.232 157.972 161.069 154.173 157.269C154.007 157.104 153.836 156.945 153.661 156.793L134.66 137.792L132.402 140.05L109.392 117.04C114.698 109.865 117.836 100.993 117.836 91.3892C117.835 67.5213 98.4602 48.1631 74.5678 48.1631C50.6754 48.1631 31.2988 67.5207 31.2988 91.3896Z" fill="#FEFEFE"/>
</g>
<mask id="mask2_3233_4999" style="mask-type:luminance" maskUnits="userSpaceOnUse" x="107" y="124" width="51" height="50">
<path d="M107.953 124.781H157.018V173.882H107.953V124.781Z" fill="white"/>
</mask>
<g mask="url(#mask2_3233_4999)">
<path fill-rule="evenodd" clip-rule="evenodd" d="M117.127 124.781C114.447 128.192 111.365 131.274 107.953 133.955L123.224 149.226L120.93 151.519L139.932 170.522C140.084 170.697 140.242 170.867 140.407 171.032C144.206 174.832 150.369 174.832 154.168 171.032C157.967 167.233 157.967 161.07 154.168 157.27C154.003 157.105 153.831 156.946 153.657 156.795L134.656 137.793L132.398 140.051L117.127 124.781Z" fill="#EF4171"/>
</g>
<path fill-rule="evenodd" clip-rule="evenodd" d="M41.8038 80.4691C47.8344 86.4999 57.6157 86.4999 63.6461 80.4695C69.6765 74.4391 69.6765 64.6574 63.6461 58.6274C62.4211 57.402 61.0409 56.4263 59.5692 55.6987L59.3753 59.0187L45.0689 75.7464L39.1992 77.0104C39.8843 78.2507 40.7519 79.4172 41.8038 80.4691Z" fill="#FEFEFE"/>
</svg>
